#define fe05076ce4f944acd28bb99dd66d37e18C0DJx7LbcfXvE7i_width 16
#define fe05076ce4f944acd28bb99dd66d37e18C0DJx7LbcfXvE7i_height 16
static char fe05076ce4f944acd28bb99dd66d37e18C0DJx7LbcfXvE7i_bits[] = {
  0x00, 0x00, 0x00, 0x00, 0x00, 0x00, 0x00, 0x00, 0x00, 0x00, 0xFE, 0x3F, 
  0x01, 0x40, 0x6D, 0xDB, 0x6D, 0x9B, 0x6D, 0xDB, 0x01, 0x40, 0xFE, 0x3F, 
  0x00, 0x00, 0x00, 0x00, 0x00, 0x00, 0x00, 0x00, };
