#define 67dedce916274c5bc71abc1f6df3d5f8hLNPMp75QN68h4Cn_width 16
#define 67dedce916274c5bc71abc1f6df3d5f8hLNPMp75QN68h4Cn_height 16
static char 67dedce916274c5bc71abc1f6df3d5f8hLNPMp75QN68h4Cn_bits[] = {
  0x00, 0x00, 0x80, 0x00, 0x80, 0x01, 0x80, 0x03, 0x90, 0x06, 0xB0, 0x0C, 
  0xE0, 0x06, 0xC0, 0x03, 0x80, 0x01, 0xC0, 0x03, 0xE0, 0x06, 0xB0, 0x0C, 
  0x90, 0x06, 0x80, 0x03, 0x80, 0x01, 0x80, 0x00, };
