#define 0cc592e01ccf4699e03e585fa04b21e9WQHQqDQRsdXvVvCK_width 16
#define 0cc592e01ccf4699e03e585fa04b21e9WQHQqDQRsdXvVvCK_height 16
static char 0cc592e01ccf4699e03e585fa04b21e9WQHQqDQRsdXvVvCK_bits[] = {
  0x00, 0x00, 0x00, 0x00, 0x00, 0x01, 0x10, 0x11, 0x20, 0x08, 0x80, 0x03, 
  0xC0, 0x07, 0xD8, 0x37, 0xC0, 0x07, 0x80, 0x03, 0x20, 0x08, 0x10, 0x11, 
  0x00, 0x01, 0x00, 0x00, 0x00, 0x00, 0x00, 0x00, };
