#define 877da440b7774b7eac49dbef9abdb77f6oKTr1llRIM9Gb76_width 16
#define 877da440b7774b7eac49dbef9abdb77f6oKTr1llRIM9Gb76_height 16
static char 877da440b7774b7eac49dbef9abdb77f6oKTr1llRIM9Gb76_bits[] = {
  0xE0, 0x07, 0x18, 0x18, 0x04, 0x21, 0x02, 0x41, 0x02, 0x41, 0x01, 0x81, 
  0x01, 0x81, 0x01, 0x81, 0x01, 0x81, 0x81, 0x80, 0x41, 0x80, 0x22, 0x40, 
  0x12, 0x40, 0x04, 0x20, 0x18, 0x18, 0xE0, 0x07, };
