#define fb62228788ad40239a70bc3699faac1fYDciWQNVV2m3C9bl_width 16
#define fb62228788ad40239a70bc3699faac1fYDciWQNVV2m3C9bl_height 16
static char fb62228788ad40239a70bc3699faac1fYDciWQNVV2m3C9bl_bits[] = {
  0x00, 0x00, 0x00, 0x00, 0x00, 0x00, 0x00, 0x07, 0xFC, 0x3D, 0x00, 0x07, 
  0x00, 0x00, 0x80, 0x03, 0xFC, 0x3E, 0x80, 0x03, 0x00, 0x00, 0x70, 0x00, 
  0xDC, 0x3F, 0x70, 0x00, 0x00, 0x00, 0x00, 0x00, };
