#define a798419eee5948a9c727d7e6fec025f3pGKoOz6fX9uUMDaj_width 16
#define a798419eee5948a9c727d7e6fec025f3pGKoOz6fX9uUMDaj_height 16
static char a798419eee5948a9c727d7e6fec025f3pGKoOz6fX9uUMDaj_bits[] = {
  0xE0, 0x07, 0x18, 0x18, 0x04, 0x20, 0x82, 0x41, 0x82, 0x41, 0x81, 0x81, 
  0x81, 0x81, 0x81, 0x81, 0x81, 0x81, 0x81, 0x81, 0x01, 0x80, 0x82, 0x41, 
  0x82, 0x41, 0x04, 0x20, 0x18, 0x18, 0xE0, 0x07, };
