#define d93cc2ad559040ebd12bc1689899963aCdyRGqpBhPd5eQih_width 16
#define d93cc2ad559040ebd12bc1689899963aCdyRGqpBhPd5eQih_height 16
static char d93cc2ad559040ebd12bc1689899963aCdyRGqpBhPd5eQih_bits[] = {
  0xE0, 0x07, 0x18, 0x18, 0x84, 0x24, 0x02, 0x50, 0x0A, 0x48, 0x01, 0x84, 
  0x81, 0x83, 0x45, 0xA2, 0x41, 0x82, 0x81, 0x81, 0x05, 0xA0, 0x02, 0x40, 
  0xD2, 0x4B, 0xC4, 0x23, 0x18, 0x18, 0xE0, 0x07, };
