#define 023e3ca7f69b423ddd66b69f0db20507QjQBI7irz99WrQmy_width 16
#define 023e3ca7f69b423ddd66b69f0db20507QjQBI7irz99WrQmy_height 16
static char 023e3ca7f69b423ddd66b69f0db20507QjQBI7irz99WrQmy_bits[] = {
  0xE0, 0x07, 0x18, 0x18, 0x04, 0x20, 0xC4, 0x23, 0x22, 0x44, 0x12, 0x48, 
  0x12, 0x48, 0x12, 0x48, 0x22, 0x44, 0xC4, 0x23, 0x04, 0x20, 0x08, 0x10, 
  0x10, 0x08, 0x20, 0x04, 0x40, 0x02, 0x80, 0x01, };
