#define 6e730de85ebe4952ca003bfed77fa365qdFquKJp3dt2wqWF_width 16
#define 6e730de85ebe4952ca003bfed77fa365qdFquKJp3dt2wqWF_height 16
static char 6e730de85ebe4952ca003bfed77fa365qdFquKJp3dt2wqWF_bits[] = {
  0x00, 0x00, 0x00, 0x00, 0x00, 0x00, 0x00, 0x04, 0x00, 0x0C, 0xE0, 0x1F, 
  0x10, 0x0C, 0x08, 0x04, 0x08, 0x00, 0x08, 0x00, 0x08, 0x00, 0x10, 0x00, 
  0xE0, 0x03, 0x00, 0x00, 0x00, 0x00, 0x00, 0x00, };
