#define d0868df4146c4db7d6dfe451217615a55sBD4N6mYW1PgB16_width 16
#define d0868df4146c4db7d6dfe451217615a55sBD4N6mYW1PgB16_height 16
static char d0868df4146c4db7d6dfe451217615a55sBD4N6mYW1PgB16_bits[] = {
  0x00, 0x03, 0x80, 0x03, 0xC0, 0x03, 0xE0, 0x03, 0xF6, 0x03, 0xFF, 0x03, 
  0xFF, 0x8B, 0xFF, 0x53, 0xFF, 0x23, 0xFF, 0x53, 0xFF, 0x8B, 0xF6, 0x03, 
  0xE0, 0x03, 0xC0, 0x03, 0x80, 0x03, 0x00, 0x03, };
