#define 0a1a5bc4acf24691de2fac1926c9bc762Z5h9l87UuY3SwLW_width 16
#define 0a1a5bc4acf24691de2fac1926c9bc762Z5h9l87UuY3SwLW_height 16
static char 0a1a5bc4acf24691de2fac1926c9bc762Z5h9l87UuY3SwLW_bits[] = {
  0x00, 0x03, 0x80, 0x03, 0xC0, 0x13, 0xE0, 0x23, 0xF6, 0x4B, 0xFF, 0x93, 
  0xFF, 0xA7, 0xFF, 0xAB, 0xFF, 0xAB, 0xFF, 0xA7, 0xFF, 0x93, 0xF6, 0x4B, 
  0xE0, 0x23, 0xC0, 0x13, 0x80, 0x03, 0x00, 0x03, };
